<svg xmlns="http://www.w3.org/2000/svg" width="1280" height="720" viewBox="0 0 1280 720">
  <rect width="1280" height="720" fill="#0d0d0d"/>
  <g fill="none" stroke="#1a1a1a" stroke-width="2">
    <path d="M0 60h1280M0 120h1280M0 180h1280M0 240h1280M0 300h1280M0 360h1280M0 420h1280M0 480h1280M0 540h1280M0 600h1280M0 660h1280"/>
    <path d="M80 0v720M160 0v720M240 0v720M320 0v720M400 0v720M480 0v720M560 0v720M640 0v720M720 0v720M800 0v720M880 0v720M960 0v720M1040 0v720M1120 0v720M1200 0v720"/>
  </g>
  <g fill="#4ade80">
    <rect x="0" y="0" width="24" height="24"/>
    <rect x="1256" y="0" width="24" height="24"/>
    <rect x="0" y="696" width="24" height="24"/>
    <rect x="1256" y="696" width="24" height="24"/>
  </g>
  <g font-family="Consolas, 'Courier New', monospace" text-anchor="middle">
    <text x="640" y="300" font-size="96" font-weight="bold" fill="#4ade80" letter-spacing="14">MASARFLOW</text>
    <text x="640" y="360" font-size="28" fill="#9ca3af" letter-spacing="10">PROFESSIONAL PROJECT</text>
    <text x="640" y="430" font-size="20" fill="#4b5563" letter-spacing="6">PLACEHOLDER // COMING SOON</text>
  </g>
  <g fill="#22c55e">
    <rect x="0" y="24" width="24" height="4"/>
    <rect x="0" y="692" width="24" height="4"/>
    <rect x="1256" y="24" width="24" height="4"/>
    <rect x="1256" y="692" width="24" height="4"/>
    <rect x="24" y="0" width="4" height="24"/>
    <rect x="1252" y="0" width="4" height="24"/>
    <rect x="24" y="696" width="4" height="24"/>
    <rect x="1252" y="696" width="4" height="24"/>
  </g>
</svg>
